<svg height="512" viewBox="0 0 60 60" width="512" xmlns="http://www.w3.org/2000/svg"><g id="Page-1" fill="none" fill-rule="evenodd"><g id="009---Outgoing-Call" fill-rule="nonzero"><path id="Shape" d="m25.017 34.983c-5.536-5.536-6.786-11.072-7.068-13.29-.0787994-.6132828.1322481-1.2283144.571-1.664l4.48-4.478c.6590136-.6586066.7759629-1.685024.282-2.475l-7.133-11.076c-.5464837-.87475134-1.6685624-1.19045777-2.591-.729l-11.451 5.393c-.74594117.367308-1.18469338 1.15985405-1.1 1.987.6 5.7 3.085 19.712 16.855 33.483s27.78 16.255 33.483 16.855c.827146.0846934 1.619692-.3540588 1.987-1.1l5.393-11.451c.4597307-.9204474.146114-2.0395184-.725-2.587l-11.076-7.131c-.7895259-.4944789-1.8158967-.3783642-2.475.28l-4.478 4.48c-.4356856.4387519-1.0507172.6497994-1.664.571-2.218-.282-7.754-1.532-13.29-7.068z" fill="#e8edfc"/><path id="Shape" d="m58 43.851-11.076-7.131c-.7895259-.4944789-1.8158967-.3783642-2.475.28l-.034.034 10.585 6.817c.8747513.5464837 1.1904578 1.6685624.729 2.591l-5.393 11.451c-.1837209.3669921-.4754838.6688759-.836.865.686.1 1.306.174 1.849.231.827146.0846934 1.619692-.3540588 1.987-1.1l5.393-11.451c.4589971-.9214386.1435714-2.0407889-.729-2.587z" fill="#cad9fc"/><path id="Shape" d="m45 23v7l14-11-14-11v7c-4 0-17 0-17 13 0 0 2-5 11-5z" fill="#a4c2f7"/><path id="Shape" d="m45 8v2.357l11 8.643-11 8.643v2.357l14-11z" fill="#7facfa"/><path id="Shape" d="m51.349 58.989c.4051051.0427222.8134963-.041122 1.169-.24-24.139-3.517-45.956-25.864-48.507-50.098-.08469338-.82714595.35405883-1.619692 1.1-1.987l10.715-5.048c-.6083504-.58024714-1.5146288-.71810696-2.268-.345l-11.451 5.393c-.74594117.367308-1.18469338 1.15985405-1.1 1.987 2.619 24.849 25.485 47.719 50.342 50.338z" fill="#fff"/><path id="Shape" d="m3.532 16.235-1.932.531c-.72605193-2.6238637-1.23575929-5.3028374-1.524-8.01l1.989-.21c.27752152 2.5988625.76817316 5.1705192 1.467 7.689z" fill="#fff"/><g fill="#428dff"><path id="Shape" d="m1.678 13.608c-.55228475.0027614-1.00223858-.4427153-1.005-.995s.44271525-1.0022386.995-1.005h.01c.55228475 0 1 .4477153 1 1s-.44771525 1-1 1z"/><path id="Shape" d="m1.175 9.646c.26376653-.02795986.50561937-.15956608.67234331-.36586118.16672395-.20629509.24465889-.47037678.21665669-.73413882-.04386472-.4042212.16668578-.79348091.529-.978l11.472-5.4c.4652095-.23144097 1.0301604-.06803978 1.3.376l7.123 11.064c.2475087.3948745.1894398.90837-.14 1.238l-4.477 4.477c-.6613902.6531542-.9785794 1.5784438-.857 2.5.286 2.245 1.574 8.092 7.352 13.87s11.625 7.067 13.871 7.353c.9208869.1168107 1.8439783-.1992558 2.5-.856l4.478-4.478c.325757-.3259105.8320448-.3870285 1.226-.148l11.089 7.136c.4452671.2775948.6002526.8521327.355 1.316l-5.385 11.429c-.1776027.3759641-.5748758.5971182-.988.55-8.318-.876-20.773-4.461-32.881-16.568-7.119354-6.9560168-12.32076951-15.6334245-15.1-25.191-.15110942-.5233694-.6897164-.8329137-1.218-.7-.26007604.0654571-.48246834.2336277-.61629691.4660371-.13382856.2324093-.16764156.5091698-.09370309.7669629 2.8718562 9.8902455 8.25073615 18.8705465 15.615 26.07 12.522 12.523 25.448 16.235 34.087 17.145.0996486.0106113.199788.0159521.3.016 1.1440484-.0052263 2.1871294-.6558456 2.695-1.681l5.383-11.43c.6970138-1.3784532.2272625-3.0609696-1.083-3.879l-11.086-7.138c-1.1852004-.7458754-2.7295221-.5679083-3.714.428l-4.478 4.477c-.2167974.2211369-.5249706.3274418-.832.287-2.041-.26-7.366-1.44-12.709-6.783s-6.52-10.673-6.781-12.715c-.0403651-.3062349.0655579-.6136336.286-.83l4.478-4.478c.9952554-.9895626 1.1682935-2.5381701.416-3.723l-7.123-11.065c-.8110617-1.30960914-2.4858983-1.78627674-3.865-1.1l-11.472 5.399c-1.11515361.55710575-1.76959811 1.74577442-1.644 2.986.06136299.54738543.55075665.94415499 1.099.891z"/><path id="Shape" d="m45.618 7.214c-.3009733-.23658957-.7106053-.28058517-1.0549554-.1133051-.34435.16728006-.5629764.5164741-.5630446.8993051v6.011c-11.281.26-17 4.962-17 13.989-.000924.4799959.3393282.8929424.810641.9838332.4713129.0908908.9407241-.1659153 1.118359-.6118332.017-.044 1.843-4.372 10.071-4.372h5v6c.0000682.382831.2186946.732025.5630446.8993051.3443501.1672801.7539821.1232845 1.0549554-.1133051l14-11c.2410506-.1895978.3817735-.4793198.3817735-.786s-.1407229-.5964022-.3817735-.786zm.382 20.728v-4.942c0-.5522847-.4477153-1-1-1h-6c-4.937 0-7.93 1.437-9.684 2.86 1.926-8.86 12.107-8.86 15.684-8.86.5522847 0 1-.4477153 1-1v-4.942l11.382 8.942z"/></g></g></g></svg>